<?xml version="1.0" encoding="UTF-8"?>
<svg version="1.1" xmlns="http://www.w3.org/2000/svg" width="385" height="385">
<path d="M0 0 C0.92068268 0.2165625 1.84136536 0.433125 2.78994751 0.65625 C5.82780475 1.3721152 8.86382521 2.09547344 11.89990234 2.81884766 C14.06119689 3.32963048 16.22260685 3.83992516 18.38412476 4.34976196 C24.0980543 5.69881334 29.81047899 7.05413143 35.52258301 8.41088867 C41.15144917 9.74692846 46.78154623 11.07775594 52.41162109 12.40869141 C59.08271386 13.98596371 65.75372112 15.56358934 72.4241333 17.14373779 C94.72608822 22.42574404 117.0419648 27.64792677 139.36083984 32.85791016 C139.45496682 51.03644278 139.52514945 69.21491075 139.56808853 87.39363575 C139.58857038 95.83745869 139.61640961 104.2811288 139.66259766 112.72485352 C139.7029125 120.0985063 139.72837655 127.47204825 139.73719382 134.84580821 C139.74233451 138.73740597 139.75410154 142.62868713 139.78376007 146.52018166 C140.2205987 206.27371324 122.86325601 255.39039159 81.10302734 298.39868164 C73.83960796 305.76054119 66.35860955 312.53374557 58.01416016 318.64453125 C56.41525038 319.81797803 54.83681366 321.01916437 53.25927734 322.22119141 C41.92808356 330.72789921 29.56311402 337.69702664 17.36083984 344.85791016 C16.2503125 345.51001465 15.13978516 346.16211914 13.99560547 346.83398438 C1.06169695 354.41912762 1.06169695 354.41912762 -4.23779297 357.44921875 C-5.73581106 358.32798699 -7.21410576 359.24245892 -8.65771484 360.20800781 C-10.44384766 361.37744141 -10.44384766 361.37744141 -13.63916016 362.85791016 C-17.7580931 361.819967 -21.16425865 360.13796122 -24.77978516 357.94384766 C-25.75520264 357.35563232 -26.73062012 356.76741699 -27.7355957 356.16137695 C-28.77627197 355.52498291 -29.81694824 354.88858887 -30.88916016 354.23291016 C-31.97946533 353.57137939 -33.06977051 352.90984863 -34.19311523 352.22827148 C-36.50188873 350.82661623 -38.80801127 349.42072632 -41.11230469 348.01171875 C-44.0211806 346.2334295 -46.93611289 344.46537 -49.85295105 342.70018005 C-68.99133096 331.11024384 -86.7974476 319.03772431 -103.36181641 303.91259766 C-105.31292176 302.15225218 -107.2992956 300.46606692 -109.32666016 298.79541016 C-112.46506938 296.12520184 -115.11359586 293.17257728 -117.77197266 290.02978516 C-119.04370167 288.55053551 -120.35321127 287.10313369 -121.69384766 285.68603516 C-152.33835591 253.18758869 -168.64823525 206.97260759 -168.84448242 162.80102539 C-168.85407923 161.40069807 -168.86409032 160.00037353 -168.8744812 158.60005188 C-168.90134127 154.82386373 -168.9224522 151.04766332 -168.94248319 147.27143359 C-168.96446038 143.31562277 -168.99179126 139.35984891 -169.01853943 135.40406799 C-169.06830859 127.92453572 -169.11330545 120.44498276 -169.15656179 112.96541029 C-169.20606964 104.44538764 -169.26093721 95.9254021 -169.31624138 87.40541542 C-169.429819 69.88961469 -169.53671008 52.37377943 -169.63916016 34.85791016 C-164.1072539 32.68096514 -158.65605804 30.98168449 -152.87963867 29.59643555 C-152.03947362 29.39073692 -151.19930857 29.1850383 -150.33368397 28.97310638 C-147.56291988 28.29595253 -144.79051789 27.62577491 -142.01806641 26.95556641 C-140.05332712 26.47667954 -138.08869919 25.99733556 -136.12417603 25.51756287 C-130.89496212 24.24181026 -125.66431316 22.97204765 -120.43322372 21.70401001 C-111.84942368 19.62258276 -103.26734472 17.53405747 -94.68490791 15.44701767 C-91.51458929 14.67631993 -88.34408066 13.90640717 -85.17356873 13.13650513 C-73.71450754 10.35169368 -62.26657413 7.52868181 -50.83447266 4.63525391 C-48.54341744 4.05883453 -46.25232291 3.48257137 -43.96118164 2.90649414 C-40.93651578 2.14565794 -37.91346087 1.38040642 -34.89431763 0.59793091 C-32.24339363 -0.08900869 -29.588557 -0.75806608 -26.93212891 -1.42333984 C-26.20522858 -1.61795303 -25.47832825 -1.81256622 -24.72940063 -2.01307678 C-16.31459856 -4.07770631 -8.26546505 -1.9849019 0 0 Z " fill="#171616" transform="translate(206.63916015625,12.14208984375)"/>
<path d="M0 0 C11.77543355 2.47903864 23.49030915 4.99852657 35.18499756 7.80474854 C39.32378562 8.79744991 43.46482864 9.78068313 47.60546875 10.765625 C48.42130432 10.95992096 49.23713989 11.15421692 50.07769775 11.35440063 C63.75158485 14.60989825 77.43855714 17.80322141 91.17578125 20.78125 C92.23496765 21.0112117 92.23496765 21.0112117 93.31555176 21.24581909 C96.75200601 21.99124589 100.18927908 22.73239018 103.62841797 23.46533203 C111.28089395 25.1151374 118.83515773 26.96448187 126.37817383 29.04833984 C129.15688708 29.77846618 131.92215249 30.44234134 134.72636414 31.05947876 C135.52899531 31.23651651 136.33162649 31.41355427 137.15857983 31.5959568 C137.76624848 31.72929106 138.37391714 31.86262531 139 32 C139.047035 47.15297027 139.08214132 62.30593715 139.10362434 77.45896435 C139.11387109 84.49716339 139.12780253 91.53531668 139.15087891 98.57348633 C139.17319017 105.3816349 139.18461089 112.18973621 139.18975449 118.99791908 C139.19341415 121.5790716 139.20055901 124.1602219 139.21146011 126.74135399 C139.28724364 145.45066788 139.36177565 164.521858 134.875 182.8125 C134.659646 183.70662598 134.44429199 184.60075195 134.22241211 185.52197266 C133.51499853 188.35801555 132.76727145 191.17958935 132 194 C131.74009277 194.96309082 131.48018555 195.92618164 131.21240234 196.91845703 C122.94787514 226.55052587 105.49752459 251.39802902 84 273 C83.4838916 273.52013672 82.9677832 274.04027344 82.43603516 274.57617188 C62.60438654 294.29882016 38.18520582 309.1103663 14.00732422 322.84570312 C10.52992392 324.84535633 7.11785455 326.95107493 3.71484375 329.07421875 C2 330 2 330 0 330 C0 221.1 0 112.2 0 0 Z " fill="#624BDF" transform="translate(192,26)"/>
<path d="M0 0 C15.39756804 13.15830953 23.41879986 30.90558155 25 51 C26.1166287 71.1848647 23.03713059 92.98140029 9.51953125 108.92578125 C0.05176921 119.05827573 -11.43332488 126.09778107 -25.47265625 127.19287109 C-43.42650288 127.75139008 -55.92589281 126.20780593 -70 114 C-85.33389181 99.00686134 -90.90201329 78.93399691 -91.375 57.9375 C-90.93109759 38.36719387 -85.25510779 19.61184258 -71.5625 5.125 C-52.0642459 -12.92731616 -21.58547226 -16.17229308 0 0 Z " fill="#EEEEEF" transform="translate(153,114)"/>
<path d="M0 0 C6.4061671 6.11497769 10.29363391 13.45845644 12 22.125 C12 23.445 12 24.765 12 26.125 C2.92981571 27.89273893 -5.71417006 29.56718238 -15 29.125 C-15.17015625 28.53332031 -15.3403125 27.94164062 -15.515625 27.33203125 C-17.41805849 21.12888377 -19.16888914 16.77648133 -25 13.375 C-31.85677381 10.51801091 -39.26357684 9.87952561 -46.375 12.25 C-50.06510239 14.88578742 -53.4469627 17.46416018 -54.4140625 22.1171875 C-54.60357192 26.68264162 -53.65792486 29.50813181 -51 33.125 C-44.00116024 37.64610696 -35.54392552 39.52331145 -27.5625 41.5625 C-13.53753195 45.34970323 0.48952324 49.77424201 8.6953125 62.8203125 C13.92518339 73.07085944 14.89063821 85.47642147 11.875 96.6875 C8.24542709 106.48398613 1.34495936 114.83130568 -7.96484375 119.6640625 C-24.80079435 126.92496427 -43.77666452 127.8905976 -61 121.125 C-72.97855326 115.5910485 -79.93116041 108.2228945 -85 96.125 C-86.59835123 91.55828219 -87.07378999 87.92805734 -87 83.125 C-83.58399853 82.62038375 -80.1671006 82.12211424 -76.75 81.625 C-75.78191406 81.48191406 -74.81382812 81.33882813 -73.81640625 81.19140625 C-72.88183594 81.05605469 -71.94726562 80.92070312 -70.984375 80.78125 C-69.69611816 80.59272461 -69.69611816 80.59272461 -68.38183594 80.40039062 C-66 80.125 -66 80.125 -62 80.125 C-61.68869141 81.06859375 -61.68869141 81.06859375 -61.37109375 82.03125 C-58.6659808 89.54671025 -55.17543909 95.57857025 -48.2265625 99.81640625 C-41.57508437 102.51403963 -33.79187245 102.21461852 -26.94140625 100.24609375 C-21.20433706 97.66313392 -18.23586841 95.01956217 -16 89.125 C-15.39547364 84.81774972 -15.64822058 82.78947224 -17.6875 78.9375 C-22.24607117 73.39329182 -26.76326248 71.2024958 -33.4375 69.125 C-34.2330127 68.8671875 -35.02852539 68.609375 -35.84814453 68.34375 C-40.6590076 66.80149776 -45.49544409 65.4305668 -50.375 64.125 C-61.03868621 61.12583825 -72.56299361 56.40169048 -78.5625 46.5625 C-83.56441198 36.78603567 -84.71740327 26.42175233 -81.875 15.6875 C-80.13294633 10.77067561 -77.42597267 7.01372253 -74 3.125 C-73.49726563 2.51785156 -72.99453125 1.91070312 -72.4765625 1.28515625 C-54.59501351 -18.64622884 -19.56216942 -15.45972771 0 0 Z " fill="#EFEFEF" transform="translate(295,117.875)"/>
<path d="M0 0 C8.67947088 5.0219953 12.54524942 13.61548665 15.10644531 22.99121094 C16.46047625 28.50594085 16.87973828 33.70843604 16.8125 39.375 C16.80234863 40.62216797 16.80234863 40.62216797 16.79199219 41.89453125 C16.68787287 48.10294835 16.20542165 53.98861616 14.5625 60 C14.32917969 60.90878906 14.09585938 61.81757813 13.85546875 62.75390625 C11.32133519 71.07373287 6.57504264 77.60864685 -0.671875 82.51171875 C-6.93703152 85.67762231 -13.30501324 86.30433573 -20.01171875 84.1875 C-28.51592545 80.43679322 -34.44534522 74.29047185 -37.8125 65.625 C-38.39404917 63.76198407 -38.93692284 61.88638551 -39.4375 60 C-39.66179687 59.15953125 -39.88609375 58.3190625 -40.1171875 57.453125 C-43.54747474 41.94634706 -42.39303466 24.45970679 -34.6875 10.375 C-26.92648276 -1.29599808 -13.04215504 -5.86896977 0 0 Z " fill="#161515" transform="translate(132.4375,132)"/>
<path d="M0 0 C1.98 0.99 1.98 0.99 4 2 C3.34 2 2.68 2 2 2 C2 109.25 2 216.5 2 327 C2.66 327.33 3.32 327.66 4 328 C2.68 328.66 1.36 329.32 0 330 C0 221.1 0 112.2 0 0 Z " fill="#5E49D2" transform="translate(192,26)"/>
<path d="M0 0 C0.99 0 1.98 0 3 0 C3.0582253 3.08325358 3.09367134 6.16636505 3.125 9.25 C3.14175781 10.12269531 3.15851563 10.99539062 3.17578125 11.89453125 C3.18222656 12.73886719 3.18867188 13.58320313 3.1953125 14.453125 C3.20578613 15.22817383 3.21625977 16.00322266 3.22705078 16.80175781 C2.97326556 19.25883539 2.22444152 20.87311542 1 23 C0.03911617 20.11734851 -0.11670941 18.32337729 -0.09765625 15.33203125 C-0.09443359 14.43935547 -0.09121094 13.54667969 -0.08789062 12.62695312 C-0.07951172 11.69818359 -0.07113281 10.76941406 -0.0625 9.8125 C-0.05798828 8.87212891 -0.05347656 7.93175781 -0.04882812 6.96289062 C-0.03704626 4.64186288 -0.02059558 2.32096356 0 0 Z " fill="#1C1B1C" transform="translate(146,162)"/>
<path d="M0 0 C0.66 0.33 1.32 0.66 2 1 C2 1.99 2 2.98 2 4 C1.34 4 0.68 4 0 4 C-0.98025099 11.98204378 -1.50311992 19.97591531 -2 28 C-2.33 28 -2.66 28 -3 28 C-3.40541829 8.58496862 -3.40541829 8.58496862 -1 1 C-0.67 0.67 -0.34 0.34 0 0 Z " fill="#434344" transform="translate(94,153)"/>
<path d="M0 0 C4.05214179 1.74522938 7.30603961 4.4228157 10.75 7.125 C11.35199219 7.59292969 11.95398438 8.06085938 12.57421875 8.54296875 C14.05186616 9.69225007 15.52626005 10.84571235 17 12 C16.34 12.66 15.68 13.32 15 14 C12.49216387 12.05153583 9.99516234 10.08965936 7.5 8.125 C6.78457031 7.56941406 6.06914063 7.01382812 5.33203125 6.44140625 C4.65527344 5.90644531 3.97851562 5.37148438 3.28125 4.8203125 C2.65283203 4.32805176 2.02441406 3.83579102 1.37695312 3.32861328 C0.92255859 2.8901709 0.46816406 2.45172852 0 2 C0 1.34 0 0.68 0 0 Z " fill="#292829" transform="translate(112,322)"/>
<path d="M0 0 C0 1.65 0 3.3 0 5 C-0.33 4.01 -0.66 3.02 -1 2 C-2.98 2 -4.96 2 -7 2 C-7 2.66 -7 3.32 -7 4 C-8.65 4 -10.3 4 -12 4 C-12 3.01 -12 2.02 -12 1 C-7.915021 0.45533613 -4.1274515 0 0 0 Z " fill="#E7E5EF" transform="translate(233,198)"/>
<path d="M0 0 C0.33 0.99 0.66 1.98 1 3 C-0.79133978 3.05391993 -2.58313899 3.09275571 -4.375 3.125 C-5.37273437 3.14820312 -6.37046875 3.17140625 -7.3984375 3.1953125 C-10 3 -10 3 -12 1 C-7.93631321 0.22596442 -4.13574827 -0.0984702 0 0 Z " fill="#E4E5E5" transform="translate(119,104)"/>
<path d="M0 0 C0.66 0.33 1.32 0.66 2 1 C0.20578369 5.0369867 -1.20551875 7.64480474 -5 10 C-4.38545304 6.00544473 -2.29353263 3.25533664 0 0 Z " fill="#0D0C0D" transform="translate(168,214)"/>
<path d="M0 0 C0.99 0.33 1.98 0.66 3 1 C3.33 4.63 3.66 8.26 4 12 C2.09681116 9.14521674 1.5380901 7.58058692 0.875 4.3125 C0.70742188 3.50425781 0.53984375 2.69601563 0.3671875 1.86328125 C0.24601562 1.24839844 0.12484375 0.63351563 0 0 Z " fill="#323132" transform="translate(46,226)"/>
<path d="M0 0 C-1.17744585 3.53233755 -1.95605641 3.86308075 -5.0625 5.6875 C-5.79597656 6.12449219 -6.52945312 6.56148438 -7.28515625 7.01171875 C-7.85105469 7.33785156 -8.41695313 7.66398437 -9 8 C-9.33 7.34 -9.66 6.68 -10 6 C-8.71283353 4.99421411 -7.42011342 3.99553202 -6.125 3 C-5.40570313 2.443125 -4.68640625 1.88625 -3.9453125 1.3125 C-2 0 -2 0 0 0 Z " fill="#292929" transform="translate(267,327)"/>
<path d="M0 0 C2.9555377 2.75170751 5.11563315 5.41970299 7 9 C7 9.66 7 10.32 7 11 C6.34 11 5.68 11 5 11 C3.4921875 8.8125 3.4921875 8.8125 1.875 6 C1.33617187 5.071875 0.79734375 4.14375 0.2421875 3.1875 C-0.16773438 2.465625 -0.57765625 1.74375 -1 1 C-0.67 0.67 -0.34 0.34 0 0 Z " fill="#E6E5E6" transform="translate(162,124)"/>
<path d="M0 0 C-4.95 2.475 -4.95 2.475 -10 5 C-9 2 -9 2 -6.6875 0.25 C-4 -1 -4 -1 0 0 Z " fill="#303031" transform="translate(221,359)"/>
<path d="M0 0 C-5.17578125 3.22265625 -5.17578125 3.22265625 -7 4 C-7.99 3.67 -8.98 3.34 -10 3 C-4.375 -1.3125 -4.375 -1.3125 0 0 Z " fill="#323232" transform="translate(202,370)"/>
<path d="M0 0 C-1.15173355 2.46800047 -2.04783565 4.04783565 -4 6 C-4.99 6 -5.98 6 -7 6 C-7 5.34 -7 4.68 -7 4 C-2.52941176 0 -2.52941176 0 0 0 Z " fill="#303030" transform="translate(281,315)"/>
<path d="M0 0 C-0.9590625 0.433125 -0.9590625 0.433125 -1.9375 0.875 C-4.15206079 1.82823451 -4.15206079 1.82823451 -5 4 C-5.66 4 -6.32 4 -7 4 C-7.33 3.01 -7.66 2.02 -8 1 C-4.93251126 -0.86240388 -3.40254489 -1.2151946 0 0 Z " fill="#29292A" transform="translate(45,46)"/>
<path d="M0 0 C3.36720387 1.39332574 4.9859524 2.9789286 7 6 C3.75728494 5.4409112 2.06942576 4.5867822 0 2 C0 1.34 0 0.68 0 0 Z " fill="#2C2C2D" transform="translate(104,315)"/>
<path d="M0 0 C1.75 0.125 1.75 0.125 4 1 C6.25 4.0625 6.25 4.0625 8 7 C7.01 7.495 7.01 7.495 6 8 C2 3.25 2 3.25 2 1 C1.34 0.67 0.68 0.34 0 0 Z " fill="#E7E4EF" transform="translate(293,119)"/>
</svg>
